HIERARCHY
ROOT joint_Root
{
  OFFSET 0 0 0
  CHANNELS 6 Xposition Yposition Zposition Zrotation Xrotation Yrotation
  JOINT Hips
  {
    OFFSET 0 93.9241 -3
    CHANNELS 6 Xposition Yposition Zposition Zrotation Xrotation Yrotation
    JOINT Spine
    {
      OFFSET 15.7357 0 0
      CHANNELS 6 Xposition Yposition Zposition Zrotation Xrotation Yrotation
      JOINT Chest
      {
        OFFSET 8.98455 -0.406207 0
        CHANNELS 6 Xposition Yposition Zposition Zrotation Xrotation Yrotation
        JOINT Neck
        {
          OFFSET 16.3773 0 0
          CHANNELS 6 Xposition Yposition Zposition Zrotation Xrotation Yrotation
          JOINT Head
          {
            OFFSET 6.45672 0 0
            CHANNELS 6 Xposition Yposition Zposition Zrotation Xrotation Yrotation
            End Site
            {
              OFFSET 0 0 0
            }
          }
        }
        JOINT Shoulder_L
        {
          OFFSET 12.9942 -0.242716 4.98039
          CHANNELS 6 Xposition Yposition Zposition Zrotation Xrotation Yrotation
          JOINT UpperArm_L
          {
            OFFSET 5.34809 0 0
            CHANNELS 6 Xposition Yposition Zposition Zrotation Xrotation Yrotation
            JOINT LowerArm_L
            {
              OFFSET 24.3286 1.87007e-05 0
              CHANNELS 6 Xposition Yposition Zposition Zrotation Xrotation Yrotation
              JOINT Hand_L
              {
                OFFSET 22.2916 0 0
                CHANNELS 6 Xposition Yposition Zposition Zrotation Xrotation Yrotation
                End Site
                {
                  OFFSET 0 0 0
                }
              }
            }
          }
        }
        JOINT Shoulder_R
        {
          OFFSET 12.9945 -0.242716 -4.98039
          CHANNELS 6 Xposition Yposition Zposition Zrotation Xrotation Yrotation
          JOINT UpperArm_R
          {
            OFFSET -5.34813 0 0
            CHANNELS 6 Xposition Yposition Zposition Zrotation Xrotation Yrotation
            JOINT LowerArm_R
            {
              OFFSET -24.3289 0.000322201 0
              CHANNELS 6 Xposition Yposition Zposition Zrotation Xrotation Yrotation
              JOINT Hand_R
              {
                OFFSET -22.2915 -0.000108084 0
                CHANNELS 6 Xposition Yposition Zposition Zrotation Xrotation Yrotation
                End Site
                {
                  OFFSET 0 0 0
                }
              }
            }
          }
        }
      }
    }
    JOINT UpperLeg_L
    {
      OFFSET -2.19248 -6.46944 0
      CHANNELS 6 Xposition Yposition Zposition Zrotation Xrotation Yrotation
      JOINT LowerLeg_L
      {
        OFFSET 39.0811 0 -1.23785e-05
        CHANNELS 6 Xposition Yposition Zposition Zrotation Xrotation Yrotation
        JOINT Foot_L
        {
          OFFSET 40.9854 0 -1.26872e-05
          CHANNELS 6 Xposition Yposition Zposition Zrotation Xrotation Yrotation
          JOINT Toes_L
          {
            OFFSET 11.7543 0 0
            CHANNELS 6 Xposition Yposition Zposition Zrotation Xrotation Yrotation
            End Site
            {
              OFFSET 0 0 0
            }
          }
        }
      }
    }
    JOINT UpperLeg_R
    {
      OFFSET -2.19251 6.46944 0
      CHANNELS 6 Xposition Yposition Zposition Zrotation Xrotation Yrotation
      JOINT LowerLeg_R
      {
        OFFSET -39.0811 -0.00228153 -0.0401928
        CHANNELS 6 Xposition Yposition Zposition Zrotation Xrotation Yrotation
        JOINT Foot_R
        {
          OFFSET -40.9854 0 0
          CHANNELS 6 Xposition Yposition Zposition Zrotation Xrotation Yrotation
          JOINT Toes_R
          {
            OFFSET -11.7543 0 0
            CHANNELS 6 Xposition Yposition Zposition Zrotation Xrotation Yrotation
            End Site
            {
              OFFSET 0 0 0
            }
          }
        }
      }
    }
  }
}
MOTION
Frames:	5
Frame Time:	0.0333333
0 0 0 0 0 -0 -5.80837 90.6244 1.4601 83.4087 7.33678 3.74822 15.7357 5.1072e-06 -5.51765e-07 96.5944 86.5161 -94.2285 8.98455 -0.406207 -4.3199e-07 -0.85266 0.622196 4.73426 16.3773 -1.3905e-06 -6.99897e-07 -5.2532 -8.95718 7.40331 6.45672 -1.25837e-06 -1.02172e-07 3.18531 -11.7949 11.8183 12.9942 -0.242716 4.98039 -89.8692 -0.689926 -94.2611 5.34809 -7.22636e-06 -6.2814e-07 -72.9517 -5.17528 4.85679 24.3286 1.87007e-05 4.90208e-06 4.88032 12.2853 -21.8647 22.2916 -9.88446e-07 4.63217e-06 3.8532 5.14817 3.98699 12.9945 -0.242716 -4.98039 89.1201 5.27032 -95.5071 -5.34813 -1.25947e-06 -3.79883e-06 -63.3581 -8.5544 13.972 -24.3289 0.000322201 -8.65921e-06 4.06542 11.1711 -20.1501 -22.2915 -0.000108084 -4.47941e-06 9.16107 5.37952 -2.28337 -2.19248 -6.46944 -1.22534e-07 -157.347 -39.0086 -6.83255 39.0811 -6.73843e-06 -1.23785e-05 0.0750357 -0.452263 9.84722 40.9854 -6.48686e-06 -1.26872e-05 -8.48336 -7.82549 -40.7463 11.7543 -2.30145e-07 3.05095e-06 0.0506005 -0.056654 -17.1311 -2.19251 6.46944 -1.45247e-06 -168.017 8.51045 174.224 -39.0811 -0.00228153 -0.0401928 0.12478 -0.201931 25.1337 -40.9854 7.72618e-06 5.99936e-06 2.82991 -12.7978 -67.8932 -11.7543 -5.6619e-06 -5.58687e-06 -0.0824975 0.0560135 -16.5731 
0 0 0 0 0 -0 -5.735 90.5932 1.55909 83.2719 7.10232 3.77921 15.7357 5.1072e-06 -5.51765e-07 97.4927 86.5112 -95.1578 8.98455 -0.406207 -4.3199e-07 -0.858676 0.734057 4.67316 16.3773 -1.3905e-06 -6.99897e-07 -5.20774 -8.91186 7.3663 6.45672 -1.25837e-06 -1.02172e-07 3.18069 -11.857 11.9277 12.9942 -0.242716 4.98039 -89.8809 -0.626802 -94.245 5.34809 -7.22636e-06 -6.2814e-07 -72.8437 -5.40047 5.02643 24.3286 1.87007e-05 4.90208e-06 4.81735 12.1796 -21.7748 22.2916 -9.88446e-07 4.63217e-06 3.9263 5.14915 3.9634 12.9945 -0.242716 -4.98039 89.1264 5.34504 -95.7031 -5.34813 -1.25947e-06 -3.79883e-06 -63.3103 -8.48579 13.6559 -24.3289 0.000322201 -8.65921e-06 3.89174 11.1147 -19.4423 -22.2915 -0.000108084 -4.47941e-06 9.31105 5.3733 -2.08979 -2.19248 -6.46944 -1.22534e-07 -157.05 -39.3865 -7.07697 39.0811 -6.73843e-06 -1.23785e-05 0.0843972 -0.461575 10.8013 40.9854 -6.48686e-06 -1.26872e-05 -8.59445 -7.56503 -41.256 11.7543 -2.30145e-07 3.05095e-06 0.0469024 -0.0524585 -17.0903 -2.19251 6.46944 -1.45247e-06 -167.937 8.41923 174.298 -39.0811 -0.00228153 -0.0401928 0.124913 -0.200747 25.2318 -40.9854 7.72618e-06 5.99936e-06 2.78895 -12.6657 -68.0038 -11.7543 -5.6619e-06 -5.58687e-06 -0.0853779 0.0581184 -16.5731 
0 0 0 0 0 -0 -5.67873 90.5763 1.66677 83.1785 6.95894 3.75683 15.7357 5.1072e-06 -5.51765e-07 97.8634 86.5213 -95.5784 8.98455 -0.406207 -4.3199e-07 -0.88538 0.779237 4.57416 16.3773 -1.3905e-06 -6.99897e-07 -5.22585 -8.90005 7.36241 6.45672 -1.25837e-06 -1.02172e-07 3.20668 -11.8934 12.0377 12.9942 -0.242716 4.98039 -89.89 -0.579234 -94.2438 5.34809 -7.22636e-06 -6.2814e-07 -72.7906 -5.51005 5.34659 24.3286 1.87007e-05 4.90208e-06 4.82506 12.1807 -21.8047 22.2916 -9.88446e-07 4.63217e-06 3.9312 5.14992 3.94538 12.9945 -0.242716 -4.98039 89.1289 5.42797 -95.8689 -5.34813 -1.25947e-06 -3.79883e-06 -63.2062 -8.62542 13.0913 -24.3289 0.000322201 -8.65921e-06 3.66285 11.1544 -18.3144 -22.2915 -0.000108084 -4.47941e-06 9.20913 5.3674 -1.90663 -2.19248 -6.46944 -1.22534e-07 -156.878 -39.7106 -7.25985 39.0811 -6.73843e-06 -1.23785e-05 0.091141 -0.470136 11.4162 40.9854 -6.48686e-06 -1.26872e-05 -8.66596 -7.32697 -41.5949 11.7543 -2.30145e-07 3.05095e-06 0.048183 -0.0539164 -17.1044 -2.19251 6.46944 -1.45247e-06 -167.898 8.46571 174.361 -39.0811 -0.00228153 -0.0401928 0.122823 -0.196091 25.2504 -40.9854 7.72618e-06 5.99936e-06 2.76327 -12.5063 -68.0943 -11.7543 -5.6619e-06 -5.58687e-06 -0.0803613 0.0547854 -16.5731 
0 0 0 0 0 -0 -5.64075 90.5562 1.77302 83.1031 6.86315 3.69792 15.7357 5.1072e-06 -5.51765e-07 98.0187 86.5506 -95.7771 8.98455 -0.406207 -4.3199e-07 -0.946216 0.791856 4.48785 16.3773 -1.3905e-06 -6.99897e-07 -5.27046 -8.9264 7.3335 6.45672 -1.25837e-06 -1.02172e-07 3.25205 -11.9092 12.1362 12.9942 -0.242716 4.98039 -89.9086 -0.479764 -94.2068 5.34809 -7.22636e-06 -6.2814e-07 -72.7337 -5.52228 5.77508 24.3286 1.87007e-05 4.90208e-06 4.77725 12.079 -21.7701 22.2916 -9.88446e-07 4.63217e-06 3.76589 5.15589 3.80213 12.9945 -0.242716 -4.98039 89.1403 5.46325 -96.0424 -5.34813 -1.25947e-06 -3.79883e-06 -63.1428 -8.70593 12.3792 -24.3289 0.000322201 -8.65921e-06 3.28224 10.8284 -16.9801 -22.2915 -0.000108084 -4.47941e-06 9.06124 5.35288 -1.46393 -2.19248 -6.46944 -1.22534e-07 -156.757 -40.0059 -7.47171 39.0811 -6.73843e-06 -1.23785e-05 0.0968112 -0.474568 11.971 40.9854 -6.48686e-06 -1.26872e-05 -8.74289 -7.0723 -41.902 11.7543 -2.30145e-07 3.05095e-06 0.0523176 -0.0585965 -17.1499 -2.19251 6.46944 -1.45247e-06 -167.851 8.47752 174.365 -39.0811 -0.00228153 -0.0401928 0.122208 -0.194214 25.2929 -40.9854 7.72618e-06 5.99936e-06 2.74002 -12.398 -68.191 -11.7543 -5.6619e-06 -5.58687e-06 -0.0872598 0.0595793 -16.5731 
0 0 0 0 0 -0 -5.61317 90.5411 1.89087 83.0802 6.78915 3.70258 15.7357 5.1072e-06 -5.51765e-07 98.6992 86.5538 -96.5201 8.98455 -0.406207 -4.3199e-07 -0.965824 0.87627 4.36361 16.3773 -1.3905e-06 -6.99897e-07 -5.2593 -8.95529 7.3353 6.45672 -1.25837e-06 -1.02172e-07 3.13557 -12.0131 12.254 12.9942 -0.242716 4.98039 -89.9239 -0.400394 -94.2342 5.34809 -7.22636e-06 -6.2814e-07 -72.7189 -5.59739 6.15015 24.3286 1.87007e-05 4.90208e-06 4.72968 12.0849 -21.563 22.2916 -9.88446e-07 4.63217e-06 3.64141 5.15346 3.86039 12.9945 -0.242716 -4.98039 89.149 5.49536 -96.1832 -5.34813 -1.25947e-06 -3.79883e-06 -63.0808 -9.1429 11.5224 -24.3289 0.000322201 -8.65921e-06 2.72207 9.89293 -15.473 -22.2915 -0.000108084 -4.47941e-06 8.81406 5.33575 -0.953042 -2.19248 -6.46944 -1.22534e-07 -156.614 -40.1179 -7.46691 39.0811 -6.73843e-06 -1.23785e-05 0.100028 -0.477363 12.2805 40.9854 -6.48686e-06 -1.26872e-05 -8.83453 -6.98712 -42.1085 11.7543 -2.30145e-07 3.05095e-06 0.0492305 -0.0551025 -17.1162 -2.19251 6.46944 -1.45247e-06 -167.855 8.47902 174.456 -39.0811 -0.00228153 -0.0401928 0.122403 -0.194302 25.3214 -40.9854 7.72618e-06 5.99936e-06 2.71927 -12.3129 -68.2943 -11.7543 -5.6619e-06 -5.58687e-06 -0.0893026 0.0610223 -16.5732 
